<svg t="1729286940235" class="icon" viewBox="0 0 1024 1024" version="1.1" xmlns="http://www.w3.org/2000/svg" p-id="1499" width="200" height="200"><path d="M576 992H128a32 32 0 0 1-32-32V64A32 32 0 0 1 128 32h768a32 32 0 0 1 32 32v576a32 32 0 0 1-64 0V96h-704v832H576a32 32 0 0 1 0 64z" fill="#ffffff" p-id="1500"></path><path d="M768 288H256a32 32 0 0 1 0-64h512a32 32 0 0 1 0 64zM448 544H256a32 32 0 0 1 0-64h192a32 32 0 0 1 0 64zM384 800H256a32 32 0 0 1 0-64h128a32 32 0 0 1 0 64zM640 896a192 192 0 1 1 192-192 192 192 0 0 1-192 192z m0-320a128 128 0 1 0 128 128 128 128 0 0 0-128-128z" fill="#ffffff" p-id="1501"></path><path d="M896 992a32 32 0 0 1-21.76-8.32l-138.24-128a32.64 32.64 0 0 1 44.16-47.36l137.6 128a32.64 32.64 0 0 1 0 45.44 32 32 0 0 1-21.76 10.24z" fill="#ffffff" p-id="1502"></path></svg>