<svg t="1730053067377" class="icon" viewBox="0 0 1024 1024" version="1.1" xmlns="http://www.w3.org/2000/svg" p-id="2450" width="200" height="200"><path d="M424.920254 310.018349l65.038814-65.038815v122.851094c0 13.730416 11.562456 25.292872 25.292873 25.292872s25.292872-11.562456 25.292872-25.292872V244.256881l65.038814 65.038814c5.058574 5.058574 11.562456 7.226535 18.066338 7.226535 6.503881 0 13.007763-2.16796 18.066337-7.226535 10.117149-10.117149 10.117149-26.015526 0-35.410021l-108.398024-108.398024-0.722653-0.722654c-0.722653-0.722653-2.16796-1.445307-2.890614-2.16796-0.722653 0-1.445307-0.722653-1.445307-0.722654-0.722653-0.722653-1.445307-0.722653-2.890614-1.445306-0.722653 0-1.445307-0.722653-2.167961-0.722654-0.722653-0.722653-1.445307-0.722653-2.890614-0.722653s-3.613267-0.722653-5.058574-0.722654h-0.722654c-1.445307 0-2.890614 0-4.335921 0.722654-1.445307 0-2.16796 0.722653-3.613267 0.722653-0.722653 0-0.722653 0-1.445307 0.722654-1.445307 0.722653-2.16796 1.445307-3.613268 2.16796 0 0-0.722653 0-0.722653 0.722653-1.445307 0.722653-2.890614 2.16796-3.613268 2.890614l-108.398024 108.398024c-10.117149 10.117149-10.117149 26.015526 0 35.410022 10.117149 10.117149 26.015526 10.117149 36.132675 0z" fill="#ffffff" p-id="2451"></path><path d="M514.529287 469.002117m-27.460833 0a27.460833 27.460833 0 1 0 54.921666 0 27.460833 27.460833 0 1 0-54.921666 0Z" fill="#ffffff" p-id="2452"></path><path d="M514.529287 565.115032m-27.460833 0a27.460833 27.460833 0 1 0 54.921666 0 27.460833 27.460833 0 1 0-54.921666 0Z" fill="#ffffff" p-id="2453"></path><path d="M514.529287 661.227946m-27.460833 0a27.460833 27.460833 0 1 0 54.921666 0 27.460833 27.460833 0 1 0-54.921666 0Z" fill="#ffffff" p-id="2454"></path><path d="M766.735356 648.942837c-13.730416 0-25.292872 11.562456-25.292872 25.292872v88.163726H292.674665V674.235709c0-13.730416-11.562456-25.292872-25.292872-25.292872s-25.292872 11.562456-25.292873 25.292872V787.692308c0 13.730416 11.562456 25.292872 25.292873 25.292872h499.353563c13.730416 0 25.292872-11.562456 25.292873-25.292872V674.235709c0-13.730416-11.562456-25.292872-25.292873-25.292872z" fill="#ffffff" p-id="2455"></path></svg>