<svg t="1730052926177" class="icon" viewBox="0 0 1024 1024" version="1.1" xmlns="http://www.w3.org/2000/svg" p-id="2258" width="200" height="200"><path d="M850.563162 367.107975c-31.796754-24.570219-70.820042-36.132675-110.565985-33.242061-4.335921-83.827805-54.921665-159.706422-131.522936-195.116443-28.90614-15.175723-61.425547-23.124912-94.667607-23.124912S448.045166 123.573747 419.139026 138.749471c-76.60127 35.410021-127.909668 111.288638-131.522936 195.116443-39.745942-2.890614-78.046577 8.671842-110.565984 33.242061-41.191249 31.796754-64.316161 78.769231-64.316161 130.077628 0 90.331687 73.710656 164.042343 164.042343 164.042343H354.100212c13.730416 0 25.292872-11.562456 25.292872-25.292872s-11.562456-25.292872-25.292872-25.292872H276.053634c-62.1482 0-113.456598-50.585745-113.456598-113.456599 0-35.410021 16.62103-67.929428 44.804517-90.331686 28.183486-21.679605 63.593507-28.183486 98.280875-19.511645 0.722653 0 1.445307 0.722653 2.16796 0.722654 7.949188 1.445307 15.898377-0.722653 21.679605-5.781228 5.781228-5.058574 9.394495-13.007763 8.671842-21.679605-0.722653-5.781228-0.722653-10.839802-0.722654-16.62103 0-68.652082 40.468596-131.522936 103.33945-160.429076 0.722653 0 0.722653-0.722653 1.445307-0.722653 44.081863-23.124912 99.003529-23.124912 143.085392 0 0.722653 0 0.722653 0.722653 1.445307 0.722653 62.870854 28.90614 103.33945 91.776994 103.339449 160.429076 0 5.058574 0 10.839802-0.722653 16.62103-0.722653 7.949188 2.16796 15.898377 8.671842 21.679605 5.781228 5.058574 13.730416 7.226535 21.679604 5.781228 0.722653 0 1.445307 0 2.167961-0.722654 34.687368-9.394495 70.097389-2.16796 98.280875 18.788991 28.183486 21.679605 44.804517 54.921665 44.804516 90.331687 0 62.1482-50.585745 113.456598-113.456598 113.456598H674.235709c-13.730416 0-25.292872 11.562456-25.292872 25.292873s11.562456 25.292872 25.292872 25.292872H751.559633c90.331687 0 164.042343-73.710656 164.042343-164.042343-0.722653-50.585745-23.847565-98.280875-65.038814-129.354975z" fill="#ffffff" p-id="2259"></path><path d="M604.13832 708.923077l-65.038814 65.038814v-122.851094c0-13.730416-11.562456-25.292872-25.292872-25.292872s-25.292872 11.562456-25.292873 25.292872v123.573748l-65.038814-65.038815c-10.117149-10.117149-26.015526-10.117149-35.410021 0-10.117149 10.117149-10.117149 26.015526 0 35.410022l108.398024 108.398024 0.722653 0.722653c0.722653 0.722653 1.445307 1.445307 2.890614 2.167961 0.722653 0.722653 1.445307 0.722653 1.445307 0.722653 0.722653 0.722653 1.445307 0.722653 2.890614 1.445307 0.722653 0 1.445307 0.722653 2.167961 0.722654 0.722653 0 1.445307 0.722653 2.890614 0.722653s3.613267 0.722653 5.058574 0.722654h0.722654c1.445307 0 2.890614 0 4.335921-0.722654 1.445307 0 2.16796-0.722653 3.613267-0.722653 0.722653 0 0.722653 0 1.445307-0.722654 1.445307-0.722653 2.16796-1.445307 3.613268-2.16796 0 0 0.722653 0 0.722653-0.722654 1.445307-0.722653 2.890614-2.16796 3.613268-2.890614l108.398024-108.398024c10.117149-10.117149 10.117149-26.015526 0-35.410021-10.839802-9.394495-26.738179-9.394495-36.855329 0z" fill="#ffffff" p-id="2260"></path><path d="M514.529287 550.661962m-27.460833 0a27.460833 27.460833 0 1 0 54.921666 0 27.460833 27.460833 0 1 0-54.921666 0Z" fill="#ffffff" p-id="2261"></path><path d="M514.529287 454.549047m-27.460833 0a27.460833 27.460833 0 1 0 54.921666 0 27.460833 27.460833 0 1 0-54.921666 0Z" fill="#ffffff" p-id="2262"></path><path d="M514.529287 358.436133m-27.460833 0a27.460833 27.460833 0 1 0 54.921666 0 27.460833 27.460833 0 1 0-54.921666 0Z" fill="#ffffff" p-id="2263"></path></svg>