<svg t="1729318480847" class="icon" viewBox="0 0 1024 1024" version="1.1" xmlns="http://www.w3.org/2000/svg" p-id="1583" width="200" height="200"><path d="M512 128m-64 0a64 64 0 1 0 128 0 64 64 0 1 0-128 0Z" fill="#000000" p-id="1584"></path><path d="M896 288H128a32 32 0 0 1 0-64h768a32 32 0 0 1 0 64zM800 960h-576a32 32 0 0 1-32-32v-576a32 32 0 0 1 64 0V896h512V352a32 32 0 0 1 64 0v576a32 32 0 0 1-32 32z" fill="#000000" p-id="1585"></path><path d="M416 960a32 32 0 0 1-32-32V448a32 32 0 0 1 64 0v480a32 32 0 0 1-32 32zM608 960a32 32 0 0 1-32-32V448a32 32 0 0 1 64 0v480a32 32 0 0 1-32 32z" fill="#000000" p-id="1586"></path></svg>